<?xml version="1.0" encoding="utf-8"?>
<!-- Generator: Adobe Illustrator 19.2.1, SVG Export Plug-In . SVG Version: 6.00 Build 0)  -->
<svg version="1.1" id="Layer_1" xmlns="http://www.w3.org/2000/svg" xmlns:xlink="http://www.w3.org/1999/xlink" x="0px" y="0px"
	 viewBox="0 0 2576 1388" style="enable-background:new 0 0 2576 1388;" xml:space="preserve">
<style type="text/css">
	.st0{fill:#EAEAEA;}
	.st1{fill:#FFFFFF;}
	.st2{fill:#3FB4FF;}
	.st3{fill:#A6D800;}
	.st4{fill:#FFAE2E;}
	.st5{fill:#AF3552;}
	.st6{fill:#C4C4C4;}
	.st7{fill:#EC8FEF;}
</style>
<g id="Layer_2">
	<rect class="st0" width="2576" height="1388"/>
</g>
<g id="Layer_1_1_">
	<rect x="82.7" y="208" class="st1" width="450" height="1180"/>
	<g>
		<rect x="86.7" y="212" class="st2" width="442" height="109.5"/>
		<path class="st1" d="M524.7,216v101.5h-434V216H524.7 M532.7,208h-450v117.5h450V208L532.7,208z"/>
	</g>
	<g>
		<rect x="86.6" y="321.6" class="st3" width="442" height="109.9"/>
		<path class="st1" d="M524.6,325.6v101.9h-434V325.6H524.6 M532.6,317.6h-450v117.9h450V317.6L532.6,317.6z"/>
	</g>
	<g>
		<rect x="86.7" y="431.3" class="st4" width="442" height="650.4"/>
		<path class="st1" d="M524.7,435.3v642.4h-434V435.3H524.7 M532.7,427.3h-450v658.4h450V427.3L532.7,427.3z"/>
	</g>
	<rect x="612.7" y="208" class="st1" width="768" height="1180"/>
	<g>
		<rect x="616.7" y="321.5" class="st3" width="760" height="237.5"/>
		<path class="st1" d="M1372.7,325.5V555h-752V325.5H1372.7 M1380.7,317.5h-768V563h768V317.5L1380.7,317.5z"/>
	</g>
	<g>
		<rect x="616.7" y="558.6" class="st4" width="380.7" height="554.6"/>
		<path class="st1" d="M993.4,562.6v546.6H620.7V562.6H993.4 M1001.4,554.6H612.7v562.6h388.7V554.6L1001.4,554.6z"/>
	</g>
	<rect x="1466" y="208" class="st1" width="1024" height="1180"/>
	<g>
		<rect x="1502.2" y="212" class="st2" width="479.2" height="71.2"/>
		<path class="st1" d="M1977.4,216v63.2h-471.2V216H1977.4 M1985.4,208h-487.2v79.2h487.2L1985.4,208L1985.4,208z"/>
	</g>
	<g>
		<rect x="1976.5" y="212" class="st2" width="477.9" height="71.2"/>
		<path class="st1" d="M2450.4,216v63.2h-469.9V216H2450.4 M2458.4,208h-485.9v79.2h485.9V208L2458.4,208z"/>
	</g>
	<g>
		<rect x="1502" y="282.4" class="st3" width="237.9" height="889.2"/>
		<path class="st1" d="M1735.9,286.4v881.2H1506V286.4H1735.9 M1743.9,278.4H1498v897.2h245.9V278.4L1743.9,278.4z"/>
	</g>
	<g>
		<rect x="616.7" y="212" class="st2" width="760" height="109.5"/>
		<path class="st1" d="M1372.7,216v101.5h-752V216H1372.7 M1380.7,208h-768v117.5h768V208L1380.7,208z"/>
	</g>
	<g>
		<rect x="996" y="558.6" class="st5" width="380.7" height="554.6"/>
		<path class="st1" d="M1372.7,562.6v546.6H1000V562.6H1372.7 M1380.7,554.6H992v562.6h388.7V554.6L1380.7,554.6z"/>
	</g>
	<g>
		<rect x="1739.4" y="282.4" class="st4" width="472.1" height="889.2"/>
		<g>
			<path class="st1" d="M2207.5,286.4v881.2h-464.1V286.4H2207.5 M2215.5,278.4h-480.1v897.2h480.1V278.4L2215.5,278.4z"/>
		</g>
	</g>
	<g>
		<rect x="2209" y="282.4" class="st5" width="237.9" height="889.2"/>
		<g>
			<path class="st1" d="M2442.9,286.4v881.2H2213V286.4H2442.9 M2450.9,278.4H2205v897.2h245.9V278.4L2450.9,278.4z"/>
		</g>
	</g>
	<g>
		<rect x="117.7" y="464.4" class="st6" width="173.1" height="173.1"/>
		<g>
			<path class="st1" d="M286.7,468.4v165.1h-165V468.4H286.7 M294.7,460.4h-181v181.1h181.1L294.7,460.4L294.7,460.4z"/>
		</g>
	</g>
	<g>
		<rect x="324.1" y="464.4" class="st6" width="173.1" height="173.1"/>
		<g>
			<path class="st1" d="M493.1,468.4v165.1h-165V468.4H493.1 M501.1,460.4h-181v181.1h181.1V460.4H501.1z"/>
		</g>
	</g>
	<g>
		<rect x="117.7" y="672.4" class="st6" width="173.1" height="173.1"/>
		<g>
			<path class="st1" d="M286.7,676.4v165.1h-165V676.4H286.7 M294.7,668.4h-181v181.1h181.1L294.7,668.4L294.7,668.4z"/>
		</g>
	</g>
	<g>
		<rect x="324.1" y="672.4" class="st6" width="173.1" height="173.1"/>
		<g>
			<path class="st1" d="M493.1,676.4v165.1h-165V676.4H493.1 M501.1,668.4h-181v181.1h181.1V668.4H501.1z"/>
		</g>
	</g>
	<g>
		<rect x="117.7" y="879.4" class="st6" width="173.1" height="173.1"/>
		<g>
			<path class="st1" d="M286.7,883.4v165.1h-165V883.4H286.7 M294.7,875.4h-181v181.1h181.1L294.7,875.4L294.7,875.4z"/>
		</g>
	</g>
	<g>
		<rect x="324.1" y="879.4" class="st6" width="173.1" height="173.1"/>
		<g>
			<path class="st1" d="M493.1,883.4v165.1h-165V883.4H493.1 M501.1,875.4h-181v181.1h181.1V875.4H501.1z"/>
		</g>
	</g>
	<g>
		<rect x="649.3" y="592.4" class="st6" width="143.1" height="143.1"/>
		<g>
			<path class="st1" d="M788.4,596.4v135.1H653.3V596.4H788.4 M796.4,588.4H645.3v151.1h151.1V588.4L796.4,588.4z"/>
		</g>
	</g>
	<g>
		<rect x="821.5" y="592.4" class="st6" width="143.1" height="143.1"/>
		<g>
			<path class="st1" d="M960.6,596.4v135.1H825.5V596.4H960.6 M968.6,588.4H817.5v151.1h151.1V588.4L968.6,588.4z"/>
		</g>
	</g>
	<g>
		<rect x="649.3" y="765.9" class="st6" width="143.1" height="143.1"/>
		<g>
			<path class="st1" d="M788.4,769.9V905H653.3V769.9H788.4 M796.4,761.9H645.3V913h151.1V761.9L796.4,761.9z"/>
		</g>
	</g>
	<g>
		<rect x="821.5" y="765.9" class="st6" width="143.1" height="143.1"/>
		<g>
			<path class="st1" d="M960.6,769.9V905H825.5V769.9H960.6 M968.6,761.9H817.5V913h151.1V761.9L968.6,761.9z"/>
		</g>
	</g>
	<g>
		<rect x="649.3" y="938.7" class="st6" width="143.1" height="143.1"/>
		<g>
			<path class="st1" d="M788.4,942.7v135.1H653.3V942.7H788.4 M796.4,934.7H645.3v151.1h151.1V934.7L796.4,934.7z"/>
		</g>
	</g>
	<g>
		<rect x="821.5" y="938.7" class="st6" width="143.1" height="143.1"/>
		<g>
			<path class="st1" d="M960.6,942.7v135.1H825.5V942.7H960.6 M968.6,934.7H817.5v151.1h151.1V934.7L968.6,934.7z"/>
		</g>
	</g>
	<g>
		<rect x="1763.9" y="305.2" class="st6" width="125.1" height="119.7"/>
		<g>
			<path class="st1" d="M1885,309.2v111.7h-117.1V309.2H1885 M1893,301.2h-133.1v127.7H1893V301.2L1893,301.2z"/>
		</g>
	</g>
	<g>
		<rect x="1913.3" y="305.2" class="st7" width="272.2" height="119.7"/>
		<g>
			<path class="st1" d="M2181.5,309.2v111.7h-264.2V309.2H2181.5 M2189.5,301.2h-280.2v127.7h280.2V301.2L2189.5,301.2z"/>
		</g>
	</g>
	<g>
		<rect x="1763.9" y="448.9" class="st6" width="125.1" height="119.7"/>
		<g>
			<path class="st1" d="M1885,452.9v111.7h-117.1V452.9H1885 M1893,444.9h-133.1v127.7H1893V444.9L1893,444.9z"/>
		</g>
	</g>
	<g>
		<rect x="1913.3" y="448.9" class="st7" width="272.2" height="119.7"/>
		<g>
			<path class="st1" d="M2181.5,452.9v111.7h-264.2V452.9H2181.5 M2189.5,444.9h-280.2v127.7h280.2V444.9L2189.5,444.9z"/>
		</g>
	</g>
	<g>
		<rect x="1763.9" y="592" class="st6" width="125.1" height="119.7"/>
		<g>
			<path class="st1" d="M1885,596v111.7h-117.1V596H1885 M1893,588h-133.1v127.7H1893V588L1893,588z"/>
		</g>
	</g>
	<g>
		<rect x="1913.3" y="592" class="st7" width="272.2" height="119.7"/>
		<g>
			<path class="st1" d="M2181.5,596v111.7h-264.2V596H2181.5 M2189.5,588h-280.2v127.7h280.2V588L2189.5,588z"/>
		</g>
	</g>
	<g>
		<rect x="1763.9" y="737.7" class="st6" width="125.1" height="119.7"/>
		<g>
			<path class="st1" d="M1885,741.7v111.7h-117.1V741.7H1885 M1893,733.7h-133.1v127.7H1893V733.7L1893,733.7z"/>
		</g>
	</g>
	<g>
		<rect x="1913.3" y="737.7" class="st7" width="272.2" height="119.7"/>
		<g>
			<path class="st1" d="M2181.5,741.7v111.7h-264.2V741.7H2181.5 M2189.5,733.7h-280.2v127.7h280.2V733.7L2189.5,733.7z"/>
		</g>
	</g>
	<g>
		<rect x="1763.9" y="881" class="st6" width="125.1" height="119.7"/>
		<g>
			<path class="st1" d="M1885,885v111.7h-117.1V885H1885 M1893,877h-133.1v127.7H1893V877L1893,877z"/>
		</g>
	</g>
	<g>
		<rect x="1913.3" y="881" class="st7" width="272.2" height="119.7"/>
		<g>
			<path class="st1" d="M2181.5,885v111.7h-264.2V885H2181.5 M2189.5,877h-280.2v127.7h280.2V877L2189.5,877z"/>
		</g>
	</g>
	<g>
		<rect x="1763.9" y="1026.8" class="st6" width="125.1" height="119.7"/>
		<g>
			<path class="st1" d="M1885,1030.8v111.7h-117.1v-111.7H1885 M1893,1022.8h-133.1v127.7H1893V1022.8L1893,1022.8z"/>
		</g>
	</g>
	<g>
		<rect x="1913.3" y="1026.8" class="st7" width="272.2" height="119.7"/>
		<g>
			<path class="st1" d="M2181.5,1030.8v111.7h-264.2v-111.7H2181.5 M2189.5,1022.8h-280.2v127.7h280.2V1022.8L2189.5,1022.8z"/>
		</g>
	</g>
</g>
<g>
	<path d="M238.8,145.8c0-2.5-0.1-4.6-0.2-6.6h3.9l0.2,3.9h0.1c1.4-2.3,3.6-4.5,7.6-4.5c3.3,0,5.8,2,6.9,4.9h0.1
		c0.8-1.4,1.7-2.4,2.7-3.1c1.5-1.1,3.1-1.7,5.4-1.7c3.2,0,8,2.1,8,10.5v14.3H269v-13.7c0-4.7-1.7-7.5-5.2-7.5c-2.5,0-4.5,1.9-5.2,4
		c-0.2,0.6-0.4,1.4-0.4,2.2v15h-4.3V149c0-3.9-1.7-6.7-5.1-6.7c-2.8,0-4.8,2.2-5.5,4.4c-0.2,0.6-0.3,1.4-0.3,2.1v14.6h-4.3V145.8z"
		/>
	<path d="M302.4,151.2c0,9-6.2,12.9-12.1,12.9c-6.6,0-11.6-4.8-11.6-12.5c0-8.1,5.3-12.9,12-12.9
		C297.7,138.7,302.4,143.8,302.4,151.2z M283.2,151.4c0,5.3,3,9.3,7.4,9.3c4.2,0,7.4-4,7.4-9.4c0-4.1-2.1-9.3-7.3-9.3
		S283.2,146.8,283.2,151.4z"/>
	<path d="M307.7,163.5c0.1-1.6,0.2-4.1,0.2-6.3V128h4.4v15.2h0.1c1.5-2.7,4.4-4.5,8.3-4.5c6,0,10.3,5,10.2,12.4
		c0,8.7-5.5,13-10.9,13c-3.5,0-6.3-1.3-8.1-4.5h-0.1l-0.2,4H307.7z M312.3,153.8c0,0.6,0.1,1.1,0.2,1.6c0.9,3.1,3.4,5.2,6.6,5.2
		c4.6,0,7.4-3.8,7.4-9.3c0-4.9-2.5-9-7.2-9c-3,0-5.8,2.1-6.7,5.4c-0.1,0.5-0.2,1.1-0.2,1.8V153.8z"/>
	<path d="M341.3,132.5c0.1,1.5-1,2.7-2.8,2.7c-1.6,0-2.7-1.2-2.7-2.7c0-1.5,1.2-2.8,2.8-2.8C340.2,129.7,341.3,130.9,341.3,132.5z
		 M336.4,163.5v-24.2h4.4v24.2H336.4z"/>
	<path d="M348.1,128h4.4v35.5h-4.4V128z"/>
	<path d="M362.3,152.2c0.1,6,3.9,8.4,8.3,8.4c3.2,0,5.1-0.5,6.7-1.2l0.8,3.2c-1.6,0.7-4.2,1.5-8.1,1.5c-7.5,0-11.9-4.9-11.9-12.2
		s4.3-13.1,11.4-13.1c7.9,0,10,7,10,11.4c0,0.9-0.1,1.6-0.1,2H362.3z M375.2,149c0.1-2.8-1.1-7.2-6.1-7.2c-4.5,0-6.4,4.1-6.8,7.2
		H375.2z"/>
</g>
<g>
	<path d="M941.4,132.3v7h6.3v3.4h-6.3v13.1c0,3,0.8,4.7,3.3,4.7c1.2,0,2-0.1,2.5-0.3l0.2,3.3c-0.8,0.4-2.2,0.6-3.9,0.6
		c-2,0-3.7-0.6-4.8-1.9c-1.2-1.3-1.7-3.5-1.7-6.3v-13.2h-3.8v-3.4h3.8v-5.8L941.4,132.3z"/>
	<path d="M966.1,163.5l-0.4-3.1h-0.2c-1.3,1.9-4,3.6-7.4,3.6c-4.9,0-7.4-3.5-7.4-7c0-5.9,5.2-9.1,14.6-9v-0.5c0-2-0.5-5.6-5.5-5.6
		c-2.2,0-4.6,0.7-6.3,1.8l-1-2.9c2-1.3,4.9-2.1,8-2.1c7.4,0,9.2,5.1,9.2,9.9v9.1c0,2.1,0.1,4.2,0.4,5.8H966.1z M965.4,151.1
		c-4.8-0.1-10.3,0.8-10.3,5.5c0,2.9,1.9,4.2,4.2,4.2c3.2,0,5.2-2,5.9-4.1c0.1-0.4,0.2-1,0.2-1.4V151.1z"/>
	<path d="M976.6,163.5c0.1-1.6,0.2-4.1,0.2-6.3V128h4.4v15.2h0.1c1.5-2.7,4.4-4.5,8.3-4.5c6,0,10.2,5,10.2,12.4
		c0,8.7-5.5,13-10.9,13c-3.5,0-6.3-1.3-8.1-4.5h-0.1l-0.2,4H976.6z M981.1,153.8c0,0.6,0.1,1.1,0.2,1.6c0.8,3.1,3.4,5.2,6.6,5.2
		c4.6,0,7.4-3.8,7.4-9.3c0-4.9-2.5-9-7.2-9c-3,0-5.8,2.1-6.7,5.4c-0.1,0.5-0.2,1.1-0.2,1.8V153.8z"/>
	<path d="M1005.2,128h4.4v35.5h-4.4V128z"/>
	<path d="M1019.5,152.2c0.1,6,3.9,8.4,8.3,8.4c3.2,0,5-0.5,6.7-1.2l0.8,3.2c-1.5,0.7-4.2,1.5-8.1,1.5c-7.5,0-11.9-4.9-11.9-12.2
		s4.3-13.1,11.4-13.1c7.9,0,10,7,10,11.4c0,0.9-0.1,1.6-0.2,2H1019.5z M1032.4,149c0.1-2.8-1.1-7.2-6.1-7.2c-4.5,0-6.4,4.1-6.8,7.2
		H1032.4z"/>
	<path d="M1047.4,132.3v7h6.3v3.4h-6.3v13.1c0,3,0.8,4.7,3.3,4.7c1.2,0,2-0.1,2.5-0.3l0.2,3.3c-0.8,0.4-2.2,0.6-3.9,0.6
		c-2,0-3.7-0.6-4.8-1.9c-1.2-1.3-1.7-3.5-1.7-6.3v-13.2h-3.8v-3.4h3.8v-5.8L1047.4,132.3z"/>
</g>
<g>
	<path d="M1917.4,128v29.3c0,2.2,0,4.6,0.2,6.3h-4l-0.2-4.2h-0.1c-1.4,2.7-4.3,4.8-8.3,4.8c-5.9,0-10.4-5-10.4-12.3
		c0-8.1,5-13,10.9-13c3.7,0,6.2,1.8,7.3,3.7h0.1V128H1917.4z M1913,149.1c0-0.5,0-1.3-0.2-1.9c-0.6-2.8-3-5.1-6.4-5.1
		c-4.5,0-7.2,4-7.2,9.4c0,4.9,2.4,9,7.2,9c3,0,5.7-2,6.5-5.3c0.2-0.6,0.2-1.2,0.2-1.9V149.1z"/>
	<path d="M1927.2,152.2c0.1,6,3.9,8.4,8.3,8.4c3.2,0,5.1-0.5,6.7-1.2l0.8,3.2c-1.6,0.7-4.2,1.5-8.1,1.5c-7.5,0-11.9-4.9-11.9-12.2
		s4.3-13.1,11.4-13.1c7.9,0,10,7,10,11.4c0,0.9-0.1,1.6-0.1,2H1927.2z M1940.1,149c0-2.8-1.2-7.2-6.1-7.2c-4.5,0-6.4,4.1-6.8,7.2
		H1940.1z"/>
	<path d="M1949.2,159c1.3,0.9,3.6,1.8,5.8,1.8c3.2,0,4.7-1.6,4.7-3.6c0-2.1-1.2-3.2-4.5-4.5c-4.4-1.5-6.4-4-6.4-6.9
		c0-3.9,3.1-7.1,8.3-7.1c2.5,0,4.6,0.7,6,1.5l-1.1,3.2c-1-0.6-2.7-1.4-5-1.4c-2.6,0-4,1.5-4,3.3c0,2,1.4,2.9,4.6,4.1
		c4.2,1.6,6.4,3.7,6.4,7.3c0,4.3-3.3,7.3-9.1,7.3c-2.6,0-5.1-0.6-6.8-1.6L1949.2,159z"/>
	<path d="M1973.9,150.4h0.1c0.6-0.9,1.5-1.9,2.1-2.8l7.1-8.4h5.3l-9.4,10l10.7,14.3h-5.4l-8.4-11.6l-2.2,2.5v9.1h-4.3V128h4.3V150.4
		z"/>
	<path d="M1998.3,132.3v7h6.3v3.4h-6.3v13.1c0,3,0.8,4.7,3.3,4.7c1.2,0,2-0.1,2.5-0.3l0.2,3.3c-0.8,0.4-2.2,0.6-3.9,0.6
		c-2,0-3.7-0.6-4.8-1.9c-1.2-1.3-1.7-3.5-1.7-6.3v-13.2h-3.8v-3.4h3.8v-5.8L1998.3,132.3z"/>
	<path d="M2031.2,151.2c0,9-6.2,12.9-12.1,12.9c-6.6,0-11.6-4.8-11.6-12.5c0-8.1,5.3-12.9,12-12.9
		C2026.5,138.7,2031.2,143.8,2031.2,151.2z M2012,151.4c0,5.3,3,9.3,7.4,9.3c4.2,0,7.4-4,7.4-9.4c0-4.1-2.1-9.3-7.3-9.3
		S2012,146.8,2012,151.4z"/>
	<path d="M2036.7,147.2c0-3.1-0.1-5.6-0.2-7.9h4l0.2,4.2h0.1c1.8-3,4.7-4.7,8.6-4.7c5.9,0,10.3,5,10.3,12.3c0,8.7-5.3,13-11,13
		c-3.2,0-6-1.4-7.5-3.8h-0.1v13.2h-4.3V147.2z M2041.1,153.6c0,0.6,0.1,1.2,0.2,1.8c0.8,3,3.5,5.1,6.6,5.1c4.7,0,7.4-3.8,7.4-9.4
		c0-4.9-2.6-9-7.2-9c-3,0-5.8,2.2-6.7,5.5c-0.1,0.5-0.3,1.2-0.3,1.8V153.6z"/>
</g>
</svg>
